<mxfile host="app.diagrams.net" agent="Mozilla/5.0 (Windows NT 10.0; Win64; x64) AppleWebKit/537.36 (KHTML, like Gecko) Chrome/131.0.0.0 Safari/537.36" version="26.0.4">
  <diagram name="Page-1" id="dG6ZgcLtmVfn6EOK2nyE">
    <mxGraphModel dx="1050" dy="556" grid="1" gridSize="10" guides="1" tooltips="1" connect="1" arrows="1" fold="1" page="1" pageScale="1" pageWidth="850" pageHeight="1100" math="0" shadow="0">
      <root>
        <mxCell id="0" />
        <mxCell id="1" parent="0" />
        <mxCell id="I7SxtjbSdga6xytXhJZJ-8" style="edgeStyle=orthogonalEdgeStyle;rounded=0;orthogonalLoop=1;jettySize=auto;html=1;" edge="1" parent="1" source="I7SxtjbSdga6xytXhJZJ-3" target="I7SxtjbSdga6xytXhJZJ-6">
          <mxGeometry relative="1" as="geometry" />
        </mxCell>
        <mxCell id="I7SxtjbSdga6xytXhJZJ-3" value="MongoDB" style="rounded=0;whiteSpace=wrap;html=1;" vertex="1" parent="1">
          <mxGeometry x="550" y="40" width="270" height="170" as="geometry" />
        </mxCell>
        <mxCell id="I7SxtjbSdga6xytXhJZJ-5" value="Product Data" style="rounded=0;whiteSpace=wrap;html=1;" vertex="1" parent="1">
          <mxGeometry x="570" y="50" width="90" height="40" as="geometry" />
        </mxCell>
        <mxCell id="I7SxtjbSdga6xytXhJZJ-6" value="Node App" style="rounded=0;whiteSpace=wrap;html=1;" vertex="1" parent="1">
          <mxGeometry x="150" y="240" width="340" height="200" as="geometry" />
        </mxCell>
        <mxCell id="I7SxtjbSdga6xytXhJZJ-7" style="edgeStyle=orthogonalEdgeStyle;rounded=0;orthogonalLoop=1;jettySize=auto;html=1;entryX=0.53;entryY=0.976;entryDx=0;entryDy=0;entryPerimeter=0;" edge="1" parent="1" source="I7SxtjbSdga6xytXhJZJ-6" target="I7SxtjbSdga6xytXhJZJ-3">
          <mxGeometry relative="1" as="geometry" />
        </mxCell>
        <mxCell id="I7SxtjbSdga6xytXhJZJ-9" value="Product Model" style="rounded=0;whiteSpace=wrap;html=1;" vertex="1" parent="1">
          <mxGeometry x="370" y="270" width="90" height="40" as="geometry" />
        </mxCell>
        <mxCell id="I7SxtjbSdga6xytXhJZJ-12" style="edgeStyle=orthogonalEdgeStyle;rounded=0;orthogonalLoop=1;jettySize=auto;html=1;" edge="1" parent="1" source="I7SxtjbSdga6xytXhJZJ-10" target="I7SxtjbSdga6xytXhJZJ-6">
          <mxGeometry relative="1" as="geometry">
            <mxPoint x="690" y="340" as="targetPoint" />
          </mxGeometry>
        </mxCell>
        <mxCell id="I7SxtjbSdga6xytXhJZJ-10" value="PRODUCT MODEL" style="rounded=0;whiteSpace=wrap;html=1;" vertex="1" parent="1">
          <mxGeometry x="150" y="510" width="340" height="170" as="geometry" />
        </mxCell>
        <mxCell id="I7SxtjbSdga6xytXhJZJ-11" value="Product Schema" style="rounded=0;whiteSpace=wrap;html=1;" vertex="1" parent="1">
          <mxGeometry x="390" y="530" width="80" height="40" as="geometry" />
        </mxCell>
      </root>
    </mxGraphModel>
  </diagram>
</mxfile>
